<svg id="Layer_1" data-name="Layer 1" xmlns="http://www.w3.org/2000/svg" viewBox="0 0 263.17 296.1"><defs><style>.cls-1{fill:#e0e0df;}.cls-2{fill:#e04726;}.cls-3{fill:#302e42;}.cls-4{fill:#fff;}</style></defs><title>ACE_General</title><path class="cls-1" d="M437.09,337.21V460.13a25.13,25.13,0,0,1-12.57,21.76L318.07,543.35a25.14,25.14,0,0,1-25.13,0L186.48,481.89a25.14,25.14,0,0,1-12.57-21.76V337.21a25.14,25.14,0,0,1,12.57-21.77L292.94,254a25.13,25.13,0,0,1,25.13,0l106.45,61.46A25.14,25.14,0,0,1,437.09,337.21Z" transform="translate(-173.91 -250.61)"/><path class="cls-2" d="M305.5,531.83a10.25,10.25,0,0,1-5.12-1.37L193.93,469a10.27,10.27,0,0,1-5.12-8.87V337.21a10.28,10.28,0,0,1,5.12-8.87l106.45-61.46a10.24,10.24,0,0,1,10.24,0l106.45,61.46a10.28,10.28,0,0,1,5.12,8.87V460.13a10.27,10.27,0,0,1-5.12,8.87L310.62,530.46A10.25,10.25,0,0,1,305.5,531.83Z" transform="translate(-173.91 -250.61)"/><path class="cls-3" d="M321.32,416.34l-.19.24L313,426.91l-2.47,3.14a6.39,6.39,0,0,1-10,0L298,426.91l-8.13-10.33-.19-.24H173.91v43.79a25.13,25.13,0,0,0,12.57,21.76l106.45,61.46a25.14,25.14,0,0,0,25.13,0l106.45-61.46a25.13,25.13,0,0,0,12.57-21.76V416.34Z" transform="translate(-173.91 -250.61)"/><path class="cls-4" d="M325.51,303.25l-4.38-5.57L313,287.35l-2.48-3.14a6.39,6.39,0,0,0-10,0L298,287.35l-8.13,10.33-4.38,5.57a6.39,6.39,0,1,0,10,7.9L298,308l6.48-8.23-3.16-6.48,2.69,3.4,1.49,1.79L313,308l2.47,3.14a6.39,6.39,0,1,0,10-7.9Z" transform="translate(-173.91 -250.61)"/><path class="cls-4" d="M237.8,460.28l-.74-3.27h-3.52l-.74,3.27h-2.87l4-15.68h2.73l4,15.68ZM236,452.53c-.27-1.21-.63-3-.74-3.81-.11.81-.43,2.49-.72,3.76l-.43,1.9h2.31Z" transform="translate(-173.91 -250.61)"/><path class="cls-4" d="M246.71,460.28h-2.87l-3-11.76h2.64l1.1,5.08c.2,1,.6,3,.72,3.65.11-.63.54-2.78.72-3.65l1.1-5.08h2.6Z" transform="translate(-173.91 -250.61)"/><path class="cls-4" d="M253.05,447.38a1.68,1.68,0,1,1,1.68-1.68A1.69,1.69,0,0,1,253.05,447.38Zm-1.32,12.9V448.52h2.64v11.76Z" transform="translate(-173.91 -250.61)"/><path class="cls-4" d="M262.12,460.28v-.81a2.76,2.76,0,0,1-2.11,1.05c-2.06,0-3.47-1.57-3.47-4.1a3.58,3.58,0,0,1,3.61-3.92,3.23,3.23,0,0,1,2,.47v-.9a1.28,1.28,0,0,0-1.41-1.46,3.87,3.87,0,0,0-2.37.72l-1.08-1.93a6.08,6.08,0,0,1,3.63-1.14c2.73,0,3.88,1.34,3.88,3.92v8.09Zm0-5a2.16,2.16,0,0,0-1.61-.56c-.74,0-1.28.65-1.28,1.64,0,1.14.47,1.79,1.34,1.79a1.9,1.9,0,0,0,1.55-1Z" transform="translate(-173.91 -250.61)"/><path class="cls-4" d="M273,460a4.14,4.14,0,0,1-2,.51c-1.9,0-2.84-1-2.84-3.61V451h-1.46v-2.51h1.46v-3.25l2.64-1.32v4.57h2.37V451h-2.37v5.82c0,.87.34,1.16,1,1.16a2.63,2.63,0,0,0,1.57-.56Z" transform="translate(-173.91 -250.61)"/><path class="cls-4" d="M281.63,451.46a2.36,2.36,0,0,0-1.55-.58,2,2,0,0,0-1.7,1v8.4h-2.64V448.52h2.64v.81a3.06,3.06,0,0,1,2.15-1.05,2.9,2.9,0,0,1,1.86.61Z" transform="translate(-173.91 -250.61)"/><path class="cls-4" d="M285.55,447.38a1.68,1.68,0,1,1,1.68-1.68A1.69,1.69,0,0,1,285.55,447.38Zm-1.32,12.9V448.52h2.64v11.76Z" transform="translate(-173.91 -250.61)"/><path class="cls-4" d="M295.1,460.28l-.87-1.88c-.31-.69-.56-1.37-.81-2-.25.65-.49,1.32-.81,2l-.87,1.88H289l3.14-6.09-2.91-5.67H292l.65,1.43c.31.69.58,1.39.81,2,.25-.65.49-1.32.81-2l.65-1.43h2.78l-2.91,5.67,3.14,6.09Z" transform="translate(-173.91 -250.61)"/><path class="cls-4" d="M310,460.53c-3.47,0-5.08-3.56-5.08-8.06s1.66-8.11,5.13-8.11c2.67,0,3.83,1.7,4.43,4l-2.62.85c-.4-1.43-.83-2-1.86-2-1.5,0-2.22,1.93-2.22,5.26s.74,5.31,2.26,5.31c1,0,1.46-.54,2-2.24l2.42,1C313.78,459.09,312.41,460.53,310,460.53Z" transform="translate(-173.91 -250.61)"/><path class="cls-4" d="M324.53,455.4h-5.94c.11,1.81.85,2.62,1.88,2.62a2,2,0,0,0,1.84-1l1.88,1.41a4.24,4.24,0,0,1-3.76,2.13c-2.91,0-4.5-2.49-4.5-6.12,0-3.94,1.79-6.14,4.35-6.14,3,0,4.3,2.91,4.3,6.14C324.57,454.72,324.55,455.08,324.53,455.4Zm-4.28-4.75c-1,0-1.52.85-1.66,2.58h3.34C321.8,451.79,321.39,450.65,320.25,450.65Z" transform="translate(-173.91 -250.61)"/><path class="cls-4" d="M332.7,451.46a2.36,2.36,0,0,0-1.55-.58,2,2,0,0,0-1.7,1v8.4h-2.64V448.52h2.64v.81a3.06,3.06,0,0,1,2.15-1.05,2.9,2.9,0,0,1,1.86.61Z" transform="translate(-173.91 -250.61)"/><path class="cls-4" d="M341.06,460a4.14,4.14,0,0,1-2,.51c-1.9,0-2.84-1-2.84-3.61V451h-1.46v-2.51h1.46v-3.25l2.64-1.32v4.57h2.37V451h-2.37v5.82c0,.87.34,1.16,1,1.16a2.64,2.64,0,0,0,1.57-.56Z" transform="translate(-173.91 -250.61)"/><path class="cls-4" d="M345.25,447.38a1.68,1.68,0,1,1,1.68-1.68A1.69,1.69,0,0,1,345.25,447.38Zm-1.32,12.9V448.52h2.64v11.76Z" transform="translate(-173.91 -250.61)"/><path class="cls-4" d="M353.67,446.42c-.74,0-1,.29-1,1.14v1h1.88V451h-1.88v9.25H350V451h-1.19v-2.51H350v-1.41c0-2.17,1.28-3.09,2.87-3.09a4.71,4.71,0,0,1,2,.34v2.29A2.62,2.62,0,0,0,353.67,446.42Zm4.08,1a1.68,1.68,0,1,1,1.68-1.68A1.69,1.69,0,0,1,357.75,447.38Zm-1.32,12.9V448.52h2.64v11.76Z" transform="translate(-173.91 -250.61)"/><path class="cls-4" d="M370,455.4h-5.94c.11,1.81.85,2.62,1.88,2.62a2,2,0,0,0,1.84-1l1.88,1.41a4.24,4.24,0,0,1-3.76,2.13c-2.91,0-4.5-2.49-4.5-6.12,0-3.94,1.79-6.14,4.35-6.14,3,0,4.3,2.91,4.3,6.14C370.07,454.72,370,455.08,370,455.4Zm-4.28-4.75c-1,0-1.52.85-1.66,2.58h3.34C367.29,451.79,366.89,450.65,365.75,450.65Z" transform="translate(-173.91 -250.61)"/><path class="cls-4" d="M377.59,460.28v-.81a3.17,3.17,0,0,1-2.26,1.05c-2.2,0-3.43-2-3.43-6.12,0-3.58,1.08-6.14,3.65-6.14a2.87,2.87,0,0,1,2,.9v-3.9l2.64-1.32v16.33Zm0-8.53a2.12,2.12,0,0,0-1.68-1c-.94,0-1.32.85-1.32,3.58,0,2.58.27,3.74,1.37,3.74a2.21,2.21,0,0,0,1.64-1Z" transform="translate(-173.91 -250.61)"/><path class="cls-4" d="M265.56,485.08V469.4h8v2.69h-5.24v3.32h3.52V478h-3.52v4.35h5.44v2.69Z" transform="translate(-173.91 -250.61)"/><path class="cls-4" d="M281.56,485.08v-7.62c0-1.46-.18-1.93-1.12-1.93a2.21,2.21,0,0,0-1.57,1v8.56h-2.64V473.32h2.64v.81a3,3,0,0,1,2.2-1.05c2.51,0,3.14,1.54,3.14,4.3v7.71Z" transform="translate(-173.91 -250.61)"/><path class="cls-4" d="M289.62,489.4l-.72-2c2.76-.51,3.16-1,3.16-3.16a3.17,3.17,0,0,1-2.26,1.05c-2.19,0-3.43-2-3.43-6.12,0-3.58,1.08-6.14,3.65-6.14a2.86,2.86,0,0,1,2,.9v-.65h2.64v10.55C294.7,487.39,293.65,488.87,289.62,489.4Zm2.44-12.86a2.12,2.12,0,0,0-1.68-1c-.94,0-1.32.85-1.32,3.58,0,2.58.27,3.74,1.37,3.74a2.22,2.22,0,0,0,1.64-1Z" transform="translate(-173.91 -250.61)"/><path class="cls-4" d="M298.83,472.18a1.68,1.68,0,1,1,1.68-1.68A1.69,1.69,0,0,1,298.83,472.18Zm-1.32,12.9V473.32h2.64v11.76Z" transform="translate(-173.91 -250.61)"/><path class="cls-4" d="M308.28,485.08v-7.62c0-1.46-.18-1.93-1.12-1.93a2.21,2.21,0,0,0-1.57,1v8.56h-2.64V473.32h2.64v.81a3,3,0,0,1,2.2-1.05c2.51,0,3.14,1.54,3.14,4.3v7.71Z" transform="translate(-173.91 -250.61)"/><path class="cls-4" d="M321.65,480.2h-5.94c.11,1.81.85,2.62,1.88,2.62a2,2,0,0,0,1.84-1l1.88,1.41a4.24,4.24,0,0,1-3.76,2.13c-2.91,0-4.5-2.49-4.5-6.12,0-3.94,1.79-6.14,4.35-6.14,3,0,4.3,2.91,4.3,6.14C321.7,479.53,321.67,479.88,321.65,480.2Zm-4.28-4.75c-1,0-1.52.85-1.66,2.58h3.34C318.92,476.59,318.52,475.45,317.37,475.45Z" transform="translate(-173.91 -250.61)"/><path class="cls-4" d="M332.09,480.2h-5.94c.11,1.81.85,2.62,1.88,2.62a2,2,0,0,0,1.84-1l1.88,1.41a4.24,4.24,0,0,1-3.76,2.13c-2.91,0-4.5-2.49-4.5-6.12,0-3.94,1.79-6.14,4.35-6.14,3,0,4.3,2.91,4.3,6.14C332.13,479.53,332.11,479.88,332.09,480.2Zm-4.28-4.75c-1,0-1.52.85-1.66,2.58h3.34C329.36,476.59,329,475.45,327.81,475.45Z" transform="translate(-173.91 -250.61)"/><path class="cls-4" d="M340.26,476.25a2.36,2.36,0,0,0-1.55-.58,2,2,0,0,0-1.7,1v8.4h-2.64V473.32H337v.81a3.06,3.06,0,0,1,2.15-1.05,2.89,2.89,0,0,1,1.86.6Z" transform="translate(-173.91 -250.61)"/><path class="cls-4" d="M305.5,269.5a6.24,6.24,0,0,1,3.12.84L415.07,331.8a6.27,6.27,0,0,1,3.12,5.41V460.13a6.26,6.26,0,0,1-3.12,5.41L308.62,527a6.25,6.25,0,0,1-6.24,0L195.93,465.53a6.26,6.26,0,0,1-3.12-5.41V337.21a6.26,6.26,0,0,1,3.12-5.41l106.45-61.46a6.24,6.24,0,0,1,3.12-.84m0-4a10.25,10.25,0,0,0-5.12,1.37L193.93,328.33a10.28,10.28,0,0,0-5.12,8.87V460.13a10.27,10.27,0,0,0,5.12,8.87l106.45,61.46a10.25,10.25,0,0,0,10.24,0L417.07,469a10.27,10.27,0,0,0,5.12-8.87V337.21a10.28,10.28,0,0,0-5.12-8.87L310.62,266.87a10.24,10.24,0,0,0-5.12-1.37Z" transform="translate(-173.91 -250.61)"/><path class="cls-4" d="M259.48,338.73V337a13.86,13.86,0,0,1-1.9.83,20.29,20.29,0,0,1-2.24.66,21.83,21.83,0,0,1-2.42.43,20.13,20.13,0,0,1-2.44.15,12.72,12.72,0,0,1-2.79-.28,6.46,6.46,0,0,1-2.09-.83,3.91,3.91,0,0,1-1.32-1.37,3.77,3.77,0,0,1-.46-1.9,3.35,3.35,0,0,1,.54-1.88,4.78,4.78,0,0,1,1.54-1.43,10.38,10.38,0,0,1,2.41-1,26.44,26.44,0,0,1,3.15-.72q1.74-.3,3.76-.49t4.26-.32v-1.22a3,3,0,0,0-.28-1.31,3.05,3.05,0,0,0-.78-1,4.48,4.48,0,0,0-1.17-.71,8.32,8.32,0,0,0-1.45-.46,12.58,12.58,0,0,0-1.65-.25q-.86-.08-1.73-.08a17.75,17.75,0,0,0-2.13.12,15.49,15.49,0,0,0-1.8.32q-.84.2-1.6.47t-1.54.57v-1.69q1.61-.43,3.44-.75a22.58,22.58,0,0,1,3.88-.32,16.89,16.89,0,0,1,3.25.3,8.37,8.37,0,0,1,2.62.95,5,5,0,0,1,1.75,1.68,4.64,4.64,0,0,1,.64,2.5v10.81Zm0-8.64q-3.8.21-6.48.59a26.77,26.77,0,0,0-4.39.94,6.77,6.77,0,0,0-2.5,1.3,2.25,2.25,0,0,0-.8,1.68,2.41,2.41,0,0,0,.39,1.36,3.06,3.06,0,0,0,1.12,1,6.12,6.12,0,0,0,1.78.6,12.31,12.31,0,0,0,2.34.2,15.06,15.06,0,0,0,1.58-.09q.82-.09,1.63-.24t1.6-.37q.79-.21,1.49-.47a12.25,12.25,0,0,0,1.27-.54,6.29,6.29,0,0,0,1-.59Z" transform="translate(-173.91 -250.61)"/><path class="cls-4" d="M274.23,338.73h-2.17l-8-15.93h1.62l7.46,14.94,7.46-14.94h1.61Z" transform="translate(-173.91 -250.61)"/><path class="cls-4" d="M285.57,338.73V322.8H287v15.93Z" transform="translate(-173.91 -250.61)"/><path class="cls-4" d="M306.81,338.73V337a13.83,13.83,0,0,1-1.9.83,20.33,20.33,0,0,1-2.24.66,21.82,21.82,0,0,1-2.42.43,20.13,20.13,0,0,1-2.43.15,12.72,12.72,0,0,1-2.79-.28,6.46,6.46,0,0,1-2.09-.83,3.9,3.9,0,0,1-1.32-1.37,3.77,3.77,0,0,1-.46-1.9,3.34,3.34,0,0,1,.54-1.88,4.78,4.78,0,0,1,1.54-1.43,10.37,10.37,0,0,1,2.41-1,26.39,26.39,0,0,1,3.15-.72q1.74-.3,3.76-.49t4.26-.32v-1.22a3,3,0,0,0-.28-1.31,3.06,3.06,0,0,0-.78-1,4.47,4.47,0,0,0-1.17-.71,8.32,8.32,0,0,0-1.46-.46,12.57,12.57,0,0,0-1.65-.25q-.86-.08-1.73-.08a17.76,17.76,0,0,0-2.13.12,15.53,15.53,0,0,0-1.8.32q-.83.2-1.6.47t-1.54.57v-1.69q1.61-.43,3.44-.75a22.58,22.58,0,0,1,3.88-.32,16.89,16.89,0,0,1,3.25.3,8.37,8.37,0,0,1,2.62.95,5,5,0,0,1,1.75,1.68,4.64,4.64,0,0,1,.64,2.5v10.81Zm0-8.64q-3.8.21-6.48.59a26.76,26.76,0,0,0-4.39.94,6.76,6.76,0,0,0-2.5,1.3,2.25,2.25,0,0,0-.8,1.68A2.41,2.41,0,0,0,293,336a3.07,3.07,0,0,0,1.12,1,6.13,6.13,0,0,0,1.78.6,12.31,12.31,0,0,0,2.34.2,15.05,15.05,0,0,0,1.58-.09q.82-.09,1.63-.24t1.6-.37q.79-.21,1.49-.47a12.25,12.25,0,0,0,1.27-.54,6.28,6.28,0,0,0,1-.59Z" transform="translate(-173.91 -250.61)"/><path class="cls-4" d="M319.71,324.12v14.61h-1.44V324.12H311V322.8H327v1.32Z" transform="translate(-173.91 -250.61)"/><path class="cls-4" d="M341,323.8a8,8,0,0,0-1.54-.12A9.05,9.05,0,0,0,337,324a9.69,9.69,0,0,0-2.12.86,10.55,10.55,0,0,0-1.81,1.27,13.06,13.06,0,0,0-1.51,1.54v11.06h-1.45V322.8h1.45V326a13.49,13.49,0,0,1,1.69-1.47,11.64,11.64,0,0,1,1.92-1.15,11.1,11.1,0,0,1,2.12-.75,9.58,9.58,0,0,1,2.29-.27l.73,0,.6,0,.52.06.5.08V324Q341.55,323.92,341,323.8Z" transform="translate(-173.91 -250.61)"/><path class="cls-4" d="M344.57,338.73V322.8H346v15.93Z" transform="translate(-173.91 -250.61)"/><path class="cls-4" d="M358.47,331.53l-6.87,7.2h-1.83l7.79-8.18-7.41-7.76H352l6.48,6.82L365,322.8h1.83l-7.41,7.76,7.78,8.18h-1.82Z" transform="translate(-173.91 -250.61)"/><path class="cls-4" d="M281.82,401l-2.3-10.16H268.59L266.3,401h-8.91l12.46-48.72h8.49L290.8,401ZM276.32,377c-.83-3.76-1.95-9.4-2.3-11.83-.35,2.51-1.32,7.73-2.23,11.69l-1.32,5.92h7.17Z" transform="translate(-173.91 -250.61)"/><path class="cls-4" d="M308.89,401.8c-10.79,0-15.8-11.07-15.8-25.05s5.15-25.19,15.94-25.19c8.28,0,11.9,5.29,13.78,12.32l-8.14,2.64c-1.25-4.45-2.57-6.26-5.78-6.26-4.66,0-6.89,6-6.89,16.35s2.3,16.49,7,16.49c3,0,4.52-1.67,6.33-7l7.52,3.2C320.58,397.35,316.34,401.8,308.89,401.8Z" transform="translate(-173.91 -250.61)"/><path class="cls-4" d="M327.89,401V352.32h25v8.35H336.59V371h10.93v8.21H336.59v13.5H353.5V401Z" transform="translate(-173.91 -250.61)"/></svg>